<mxfile host="app.diagrams.net" modified="2021-08-16T03:23:08.727Z" agent="5.0 (Macintosh; Intel Mac OS X 10_15_7) AppleWebKit/537.36 (KHTML, like Gecko) Chrome/92.0.4515.131 Safari/537.36" etag="QrQq_QE5wcSKpMtqNtQe" version="14.9.6" type="github">
  <diagram id="p1kKFq5INRBr9ZFbTrHd" name="Page-1">
    <mxGraphModel dx="1186" dy="515" grid="1" gridSize="10" guides="1" tooltips="1" connect="1" arrows="1" fold="1" page="1" pageScale="1" pageWidth="827" pageHeight="1169" math="0" shadow="0">
      <root>
        <mxCell id="0" />
        <mxCell id="1" parent="0" />
        <mxCell id="rJevuJi4WogcMfxzwuTJ-1" value="" style="shape=image;verticalLabelPosition=bottom;labelBackgroundColor=#ffffff;verticalAlign=top;aspect=fixed;imageAspect=0;image=https://i.loli.net/2021/08/13/6gSBdHnD7qwvKIF.png;" vertex="1" parent="1">
          <mxGeometry x="80" y="170" width="730" height="292" as="geometry" />
        </mxCell>
        <mxCell id="rJevuJi4WogcMfxzwuTJ-2" value="001&lt;br&gt;Lily&lt;br&gt;20" style="rounded=0;whiteSpace=wrap;html=1;" vertex="1" parent="1">
          <mxGeometry x="120" y="430" width="60" height="46" as="geometry" />
        </mxCell>
        <mxCell id="rJevuJi4WogcMfxzwuTJ-3" value="Jack&lt;br&gt;21" style="rounded=0;whiteSpace=wrap;html=1;" vertex="1" parent="1">
          <mxGeometry x="199" y="430" width="60" height="46" as="geometry" />
        </mxCell>
        <mxCell id="rJevuJi4WogcMfxzwuTJ-4" value="Lucy&lt;br&gt;23" style="rounded=0;whiteSpace=wrap;html=1;" vertex="1" parent="1">
          <mxGeometry x="276" y="430" width="60" height="46" as="geometry" />
        </mxCell>
        <mxCell id="rJevuJi4WogcMfxzwuTJ-5" value="James&lt;br&gt;24" style="rounded=0;whiteSpace=wrap;html=1;" vertex="1" parent="1">
          <mxGeometry x="354" y="430" width="60" height="46" as="geometry" />
        </mxCell>
        <mxCell id="rJevuJi4WogcMfxzwuTJ-6" value="Jerry&lt;br&gt;25" style="rounded=0;whiteSpace=wrap;html=1;" vertex="1" parent="1">
          <mxGeometry x="432.5" y="430" width="60" height="46" as="geometry" />
        </mxCell>
        <mxCell id="rJevuJi4WogcMfxzwuTJ-7" value="29" style="rounded=0;whiteSpace=wrap;html=1;" vertex="1" parent="1">
          <mxGeometry x="432.5" y="384" width="60" height="46" as="geometry" />
        </mxCell>
        <mxCell id="rJevuJi4WogcMfxzwuTJ-8" value="Jerry&lt;br&gt;22" style="rounded=0;whiteSpace=wrap;html=1;" vertex="1" parent="1">
          <mxGeometry x="1110" y="390" width="60" height="46" as="geometry" />
        </mxCell>
        <mxCell id="rJevuJi4WogcMfxzwuTJ-10" value="jackson&lt;br&gt;19" style="rounded=0;whiteSpace=wrap;html=1;" vertex="1" parent="1">
          <mxGeometry x="900" y="390" width="60" height="46" as="geometry" />
        </mxCell>
        <mxCell id="rJevuJi4WogcMfxzwuTJ-12" value="5" style="rounded=0;whiteSpace=wrap;html=1;" vertex="1" parent="1">
          <mxGeometry x="900" y="436" width="60" height="46" as="geometry" />
        </mxCell>
        <mxCell id="rJevuJi4WogcMfxzwuTJ-13" value="lily&lt;br&gt;20" style="rounded=0;whiteSpace=wrap;html=1;" vertex="1" parent="1">
          <mxGeometry x="990" y="230" width="60" height="36" as="geometry" />
        </mxCell>
        <mxCell id="rJevuJi4WogcMfxzwuTJ-14" value="jack&lt;br&gt;20" style="rounded=0;whiteSpace=wrap;html=1;" vertex="1" parent="1">
          <mxGeometry x="1000" y="390" width="60" height="46" as="geometry" />
        </mxCell>
        <mxCell id="rJevuJi4WogcMfxzwuTJ-15" value="8" style="rounded=0;whiteSpace=wrap;html=1;" vertex="1" parent="1">
          <mxGeometry x="1000" y="436" width="60" height="46" as="geometry" />
        </mxCell>
        <mxCell id="rJevuJi4WogcMfxzwuTJ-16" value="29" style="rounded=0;whiteSpace=wrap;html=1;" vertex="1" parent="1">
          <mxGeometry x="1110" y="436" width="60" height="50" as="geometry" />
        </mxCell>
        <mxCell id="rJevuJi4WogcMfxzwuTJ-17" value="" style="endArrow=none;html=1;exitX=0.5;exitY=0;exitDx=0;exitDy=0;" edge="1" parent="1" source="rJevuJi4WogcMfxzwuTJ-14">
          <mxGeometry width="50" height="50" relative="1" as="geometry">
            <mxPoint x="930" y="350" as="sourcePoint" />
            <mxPoint x="1020" y="270" as="targetPoint" />
          </mxGeometry>
        </mxCell>
        <mxCell id="rJevuJi4WogcMfxzwuTJ-18" value="" style="endArrow=none;html=1;entryX=0.5;entryY=0;entryDx=0;entryDy=0;" edge="1" parent="1" target="rJevuJi4WogcMfxzwuTJ-8">
          <mxGeometry width="50" height="50" relative="1" as="geometry">
            <mxPoint x="1020" y="270" as="sourcePoint" />
            <mxPoint x="1070" y="310" as="targetPoint" />
          </mxGeometry>
        </mxCell>
        <mxCell id="rJevuJi4WogcMfxzwuTJ-19" value="" style="endArrow=none;html=1;exitX=0.5;exitY=0;exitDx=0;exitDy=0;" edge="1" parent="1" source="rJevuJi4WogcMfxzwuTJ-10">
          <mxGeometry width="50" height="50" relative="1" as="geometry">
            <mxPoint x="1040" y="414" as="sourcePoint" />
            <mxPoint x="1020" y="270" as="targetPoint" />
          </mxGeometry>
        </mxCell>
        <mxCell id="rJevuJi4WogcMfxzwuTJ-22" value="" style="shape=table;html=1;whiteSpace=wrap;startSize=0;container=1;collapsible=0;childLayout=tableLayout;" vertex="1" parent="1">
          <mxGeometry x="1240" y="336" width="340" height="320" as="geometry" />
        </mxCell>
        <mxCell id="rJevuJi4WogcMfxzwuTJ-23" value="" style="shape=partialRectangle;html=1;whiteSpace=wrap;collapsible=0;dropTarget=0;pointerEvents=0;fillColor=none;top=0;left=0;bottom=0;right=0;points=[[0,0.5],[1,0.5]];portConstraint=eastwest;" vertex="1" parent="rJevuJi4WogcMfxzwuTJ-22">
          <mxGeometry width="340" height="40" as="geometry" />
        </mxCell>
        <mxCell id="rJevuJi4WogcMfxzwuTJ-24" value="id" style="shape=partialRectangle;html=1;whiteSpace=wrap;connectable=0;fillColor=none;top=0;left=0;bottom=0;right=0;overflow=hidden;pointerEvents=1;" vertex="1" parent="rJevuJi4WogcMfxzwuTJ-23">
          <mxGeometry width="113" height="40" as="geometry" />
        </mxCell>
        <mxCell id="rJevuJi4WogcMfxzwuTJ-25" value="name" style="shape=partialRectangle;html=1;whiteSpace=wrap;connectable=0;fillColor=none;top=0;left=0;bottom=0;right=0;overflow=hidden;pointerEvents=1;" vertex="1" parent="rJevuJi4WogcMfxzwuTJ-23">
          <mxGeometry x="113" width="114" height="40" as="geometry" />
        </mxCell>
        <mxCell id="rJevuJi4WogcMfxzwuTJ-26" value="age" style="shape=partialRectangle;html=1;whiteSpace=wrap;connectable=0;fillColor=none;top=0;left=0;bottom=0;right=0;overflow=hidden;pointerEvents=1;" vertex="1" parent="rJevuJi4WogcMfxzwuTJ-23">
          <mxGeometry x="227" width="113" height="40" as="geometry" />
        </mxCell>
        <mxCell id="rJevuJi4WogcMfxzwuTJ-27" value="" style="shape=partialRectangle;html=1;whiteSpace=wrap;collapsible=0;dropTarget=0;pointerEvents=0;fillColor=none;top=0;left=0;bottom=0;right=0;points=[[0,0.5],[1,0.5]];portConstraint=eastwest;" vertex="1" parent="rJevuJi4WogcMfxzwuTJ-22">
          <mxGeometry y="40" width="340" height="40" as="geometry" />
        </mxCell>
        <mxCell id="rJevuJi4WogcMfxzwuTJ-28" value="1" style="shape=partialRectangle;html=1;whiteSpace=wrap;connectable=0;fillColor=none;top=0;left=0;bottom=0;right=0;overflow=hidden;pointerEvents=1;" vertex="1" parent="rJevuJi4WogcMfxzwuTJ-27">
          <mxGeometry width="113" height="40" as="geometry" />
        </mxCell>
        <mxCell id="rJevuJi4WogcMfxzwuTJ-29" value="Lily" style="shape=partialRectangle;html=1;whiteSpace=wrap;connectable=0;fillColor=none;top=0;left=0;bottom=0;right=0;overflow=hidden;pointerEvents=1;" vertex="1" parent="rJevuJi4WogcMfxzwuTJ-27">
          <mxGeometry x="113" width="114" height="40" as="geometry" />
        </mxCell>
        <mxCell id="rJevuJi4WogcMfxzwuTJ-30" value="20" style="shape=partialRectangle;html=1;whiteSpace=wrap;connectable=0;fillColor=none;top=0;left=0;bottom=0;right=0;overflow=hidden;pointerEvents=1;" vertex="1" parent="rJevuJi4WogcMfxzwuTJ-27">
          <mxGeometry x="227" width="113" height="40" as="geometry" />
        </mxCell>
        <mxCell id="rJevuJi4WogcMfxzwuTJ-31" value="" style="shape=partialRectangle;html=1;whiteSpace=wrap;collapsible=0;dropTarget=0;pointerEvents=0;fillColor=none;top=0;left=0;bottom=0;right=0;points=[[0,0.5],[1,0.5]];portConstraint=eastwest;" vertex="1" parent="rJevuJi4WogcMfxzwuTJ-22">
          <mxGeometry y="80" width="340" height="40" as="geometry" />
        </mxCell>
        <mxCell id="rJevuJi4WogcMfxzwuTJ-32" value="5" style="shape=partialRectangle;html=1;whiteSpace=wrap;connectable=0;fillColor=none;top=0;left=0;bottom=0;right=0;overflow=hidden;pointerEvents=1;" vertex="1" parent="rJevuJi4WogcMfxzwuTJ-31">
          <mxGeometry width="113" height="40" as="geometry" />
        </mxCell>
        <mxCell id="rJevuJi4WogcMfxzwuTJ-33" value="Jackson" style="shape=partialRectangle;html=1;whiteSpace=wrap;connectable=0;fillColor=none;top=0;left=0;bottom=0;right=0;overflow=hidden;pointerEvents=1;" vertex="1" parent="rJevuJi4WogcMfxzwuTJ-31">
          <mxGeometry x="113" width="114" height="40" as="geometry" />
        </mxCell>
        <mxCell id="rJevuJi4WogcMfxzwuTJ-34" value="19" style="shape=partialRectangle;html=1;whiteSpace=wrap;connectable=0;fillColor=none;top=0;left=0;bottom=0;right=0;overflow=hidden;pointerEvents=1;" vertex="1" parent="rJevuJi4WogcMfxzwuTJ-31">
          <mxGeometry x="227" width="113" height="40" as="geometry" />
        </mxCell>
        <mxCell id="rJevuJi4WogcMfxzwuTJ-35" value="" style="shape=partialRectangle;html=1;whiteSpace=wrap;collapsible=0;dropTarget=0;pointerEvents=0;fillColor=none;top=0;left=0;bottom=0;right=0;points=[[0,0.5],[1,0.5]];portConstraint=eastwest;" vertex="1" parent="rJevuJi4WogcMfxzwuTJ-22">
          <mxGeometry y="120" width="340" height="40" as="geometry" />
        </mxCell>
        <mxCell id="rJevuJi4WogcMfxzwuTJ-36" value="8" style="shape=partialRectangle;html=1;whiteSpace=wrap;connectable=0;fillColor=none;top=0;left=0;bottom=0;right=0;overflow=hidden;pointerEvents=1;" vertex="1" parent="rJevuJi4WogcMfxzwuTJ-35">
          <mxGeometry width="113" height="40" as="geometry" />
        </mxCell>
        <mxCell id="rJevuJi4WogcMfxzwuTJ-37" value="Jack" style="shape=partialRectangle;html=1;whiteSpace=wrap;connectable=0;fillColor=none;top=0;left=0;bottom=0;right=0;overflow=hidden;pointerEvents=1;" vertex="1" parent="rJevuJi4WogcMfxzwuTJ-35">
          <mxGeometry x="113" width="114" height="40" as="geometry" />
        </mxCell>
        <mxCell id="rJevuJi4WogcMfxzwuTJ-38" value="20" style="shape=partialRectangle;html=1;whiteSpace=wrap;connectable=0;fillColor=none;top=0;left=0;bottom=0;right=0;overflow=hidden;pointerEvents=1;" vertex="1" parent="rJevuJi4WogcMfxzwuTJ-35">
          <mxGeometry x="227" width="113" height="40" as="geometry" />
        </mxCell>
        <mxCell id="rJevuJi4WogcMfxzwuTJ-39" value="" style="shape=partialRectangle;html=1;whiteSpace=wrap;collapsible=0;dropTarget=0;pointerEvents=0;fillColor=none;top=0;left=0;bottom=0;right=0;points=[[0,0.5],[1,0.5]];portConstraint=eastwest;" vertex="1" parent="rJevuJi4WogcMfxzwuTJ-22">
          <mxGeometry y="160" width="340" height="40" as="geometry" />
        </mxCell>
        <mxCell id="rJevuJi4WogcMfxzwuTJ-40" value="20" style="shape=partialRectangle;html=1;whiteSpace=wrap;connectable=0;fillColor=none;top=0;left=0;bottom=0;right=0;overflow=hidden;pointerEvents=1;" vertex="1" parent="rJevuJi4WogcMfxzwuTJ-39">
          <mxGeometry width="113" height="40" as="geometry" />
        </mxCell>
        <mxCell id="rJevuJi4WogcMfxzwuTJ-41" value="Billy" style="shape=partialRectangle;html=1;whiteSpace=wrap;connectable=0;fillColor=none;top=0;left=0;bottom=0;right=0;overflow=hidden;pointerEvents=1;" vertex="1" parent="rJevuJi4WogcMfxzwuTJ-39">
          <mxGeometry x="113" width="114" height="40" as="geometry" />
        </mxCell>
        <mxCell id="rJevuJi4WogcMfxzwuTJ-42" value="21" style="shape=partialRectangle;html=1;whiteSpace=wrap;connectable=0;fillColor=none;top=0;left=0;bottom=0;right=0;overflow=hidden;pointerEvents=1;" vertex="1" parent="rJevuJi4WogcMfxzwuTJ-39">
          <mxGeometry x="227" width="113" height="40" as="geometry" />
        </mxCell>
        <mxCell id="rJevuJi4WogcMfxzwuTJ-43" value="" style="shape=partialRectangle;html=1;whiteSpace=wrap;collapsible=0;dropTarget=0;pointerEvents=0;fillColor=none;top=0;left=0;bottom=0;right=0;points=[[0,0.5],[1,0.5]];portConstraint=eastwest;" vertex="1" parent="rJevuJi4WogcMfxzwuTJ-22">
          <mxGeometry y="200" width="340" height="40" as="geometry" />
        </mxCell>
        <mxCell id="rJevuJi4WogcMfxzwuTJ-44" value="22" style="shape=partialRectangle;html=1;whiteSpace=wrap;connectable=0;fillColor=none;top=0;left=0;bottom=0;right=0;overflow=hidden;pointerEvents=1;" vertex="1" parent="rJevuJi4WogcMfxzwuTJ-43">
          <mxGeometry width="113" height="40" as="geometry" />
        </mxCell>
        <mxCell id="rJevuJi4WogcMfxzwuTJ-45" value="Sunny" style="shape=partialRectangle;html=1;whiteSpace=wrap;connectable=0;fillColor=none;top=0;left=0;bottom=0;right=0;overflow=hidden;pointerEvents=1;" vertex="1" parent="rJevuJi4WogcMfxzwuTJ-43">
          <mxGeometry x="113" width="114" height="40" as="geometry" />
        </mxCell>
        <mxCell id="rJevuJi4WogcMfxzwuTJ-46" value="30" style="shape=partialRectangle;html=1;whiteSpace=wrap;connectable=0;fillColor=none;top=0;left=0;bottom=0;right=0;overflow=hidden;pointerEvents=1;" vertex="1" parent="rJevuJi4WogcMfxzwuTJ-43">
          <mxGeometry x="227" width="113" height="40" as="geometry" />
        </mxCell>
        <mxCell id="rJevuJi4WogcMfxzwuTJ-47" value="" style="shape=partialRectangle;html=1;whiteSpace=wrap;collapsible=0;dropTarget=0;pointerEvents=0;fillColor=none;top=0;left=0;bottom=0;right=0;points=[[0,0.5],[1,0.5]];portConstraint=eastwest;" vertex="1" parent="rJevuJi4WogcMfxzwuTJ-22">
          <mxGeometry y="240" width="340" height="40" as="geometry" />
        </mxCell>
        <mxCell id="rJevuJi4WogcMfxzwuTJ-48" value="29" style="shape=partialRectangle;html=1;whiteSpace=wrap;connectable=0;fillColor=none;top=0;left=0;bottom=0;right=0;overflow=hidden;pointerEvents=1;" vertex="1" parent="rJevuJi4WogcMfxzwuTJ-47">
          <mxGeometry width="113" height="40" as="geometry" />
        </mxCell>
        <mxCell id="rJevuJi4WogcMfxzwuTJ-49" value="Jerry" style="shape=partialRectangle;html=1;whiteSpace=wrap;connectable=0;fillColor=none;top=0;left=0;bottom=0;right=0;overflow=hidden;pointerEvents=1;" vertex="1" parent="rJevuJi4WogcMfxzwuTJ-47">
          <mxGeometry x="113" width="114" height="40" as="geometry" />
        </mxCell>
        <mxCell id="rJevuJi4WogcMfxzwuTJ-50" value="22" style="shape=partialRectangle;html=1;whiteSpace=wrap;connectable=0;fillColor=none;top=0;left=0;bottom=0;right=0;overflow=hidden;pointerEvents=1;" vertex="1" parent="rJevuJi4WogcMfxzwuTJ-47">
          <mxGeometry x="227" width="113" height="40" as="geometry" />
        </mxCell>
        <mxCell id="rJevuJi4WogcMfxzwuTJ-51" value="" style="shape=partialRectangle;html=1;whiteSpace=wrap;collapsible=0;dropTarget=0;pointerEvents=0;fillColor=none;top=0;left=0;bottom=0;right=0;points=[[0,0.5],[1,0.5]];portConstraint=eastwest;" vertex="1" parent="rJevuJi4WogcMfxzwuTJ-22">
          <mxGeometry y="280" width="340" height="40" as="geometry" />
        </mxCell>
        <mxCell id="rJevuJi4WogcMfxzwuTJ-52" value="40" style="shape=partialRectangle;html=1;whiteSpace=wrap;connectable=0;fillColor=none;top=0;left=0;bottom=0;right=0;overflow=hidden;pointerEvents=1;" vertex="1" parent="rJevuJi4WogcMfxzwuTJ-51">
          <mxGeometry width="113" height="40" as="geometry" />
        </mxCell>
        <mxCell id="rJevuJi4WogcMfxzwuTJ-53" value="null" style="shape=partialRectangle;html=1;whiteSpace=wrap;connectable=0;fillColor=none;top=0;left=0;bottom=0;right=0;overflow=hidden;pointerEvents=1;" vertex="1" parent="rJevuJi4WogcMfxzwuTJ-51">
          <mxGeometry x="113" width="114" height="40" as="geometry" />
        </mxCell>
        <mxCell id="rJevuJi4WogcMfxzwuTJ-54" value="40" style="shape=partialRectangle;html=1;whiteSpace=wrap;connectable=0;fillColor=none;top=0;left=0;bottom=0;right=0;overflow=hidden;pointerEvents=1;" vertex="1" parent="rJevuJi4WogcMfxzwuTJ-51">
          <mxGeometry x="227" width="113" height="40" as="geometry" />
        </mxCell>
        <mxCell id="rJevuJi4WogcMfxzwuTJ-56" value="问题：为什么非主键索引的叶子节点存放的数据是主键值？" style="text;html=1;align=center;verticalAlign=middle;resizable=0;points=[];autosize=1;strokeColor=none;" vertex="1" parent="1">
          <mxGeometry x="50" y="120" width="330" height="20" as="geometry" />
        </mxCell>
        <mxCell id="rJevuJi4WogcMfxzwuTJ-58" value="&lt;font style=&quot;font-size: 14px&quot;&gt;主键索引树&lt;/font&gt;" style="text;html=1;align=center;verticalAlign=middle;resizable=0;points=[];autosize=1;strokeColor=none;" vertex="1" parent="1">
          <mxGeometry x="115" y="210" width="90" height="20" as="geometry" />
        </mxCell>
        <mxCell id="rJevuJi4WogcMfxzwuTJ-60" value="&lt;font style=&quot;font-size: 18px&quot;&gt;idx_name_age 索引树&lt;/font&gt;" style="text;html=1;align=center;verticalAlign=middle;resizable=0;points=[];autosize=1;strokeColor=none;" vertex="1" parent="1">
          <mxGeometry x="900" y="170" width="190" height="20" as="geometry" />
        </mxCell>
        <mxCell id="rJevuJi4WogcMfxzwuTJ-61" value="&lt;font style=&quot;font-size: 18px&quot;&gt;create index idx_name_age on query_test(name,age);&lt;/font&gt;" style="text;whiteSpace=wrap;html=1;" vertex="1" parent="1">
          <mxGeometry x="1230" y="230" width="460" height="30" as="geometry" />
        </mxCell>
        <mxCell id="rJevuJi4WogcMfxzwuTJ-62" value="" style="shape=flexArrow;endArrow=classic;html=1;endWidth=22;endSize=5.67;" edge="1" parent="1">
          <mxGeometry width="50" height="50" relative="1" as="geometry">
            <mxPoint x="1400.4099999999999" y="265.9994117647059" as="sourcePoint" />
            <mxPoint x="1400" y="322.47" as="targetPoint" />
          </mxGeometry>
        </mxCell>
        <mxCell id="rJevuJi4WogcMfxzwuTJ-63" value="&lt;font style=&quot;font-size: 18px&quot;&gt;创建联合索引&lt;/font&gt;" style="text;html=1;align=center;verticalAlign=middle;resizable=0;points=[];autosize=1;strokeColor=none;" vertex="1" parent="1">
          <mxGeometry x="1180" y="190" width="120" height="20" as="geometry" />
        </mxCell>
      </root>
    </mxGraphModel>
  </diagram>
</mxfile>
